<svg width="900" height="900" viewBox="0 0 900 900" fill="none" xmlns="http://www.w3.org/2000/svg">
<rect width="900" height="900" fill="#5B009D"/>
<path d="M668.276 277.117C674.898 277.302 679.511 278.641 684.888 282.575C695.602 290.413 695.917 303.37 697.755 315.409L702.644 346.877L712.217 408.329C714.166 420.661 716.154 432.985 718.011 445.334C720.104 456.032 714.557 468.46 704.774 473.581C696.694 477.814 683.484 478.689 674.234 480.128L631.498 486.752C603.837 490.955 586.307 492.706 560.916 505.493C526.224 523.137 499.294 553.003 485.319 589.329C483.047 595.183 481.186 601.043 479.715 607.153C473.26 633.998 459.599 659.792 442.727 681.484C408.976 724.751 359.584 753.039 305.184 760.255C248.064 767.313 193.077 753.522 147.4 717.923C144.306 715.445 141.242 712.931 138.207 710.381C132.091 705.158 125.953 699.063 120.532 693.105C20.5054 583.198 63.8546 405.207 203.473 353.703C225.24 345.673 245.326 342.855 268.106 339.31L314.328 332.103L478.244 306.504L604.105 286.829L643.454 280.655C650.737 279.503 661.17 277.578 668.276 277.117ZM361.741 379.169L288.995 390.534C266.501 394.018 241.723 396.754 220.633 404.852C192.505 415.627 168.066 434.258 150.229 458.529C125.536 492.178 115.24 534.265 121.614 575.51C126.749 608.864 142.54 639.66 166.626 663.3C196.696 692.906 237.43 709.143 279.622 708.347C320.95 707.664 360.324 690.649 389.144 661.019C401.669 648.079 412.603 632.333 419.89 615.855C426.451 601.022 429.124 585.354 435.03 569.998C457.799 510.478 506.323 464.483 566.981 444.927C586.017 438.74 606.471 435.785 626.232 432.898C637.556 431.246 649.56 428.907 660.894 427.704C658.669 416.341 656.847 401.149 654.89 390.247C653.9 384.724 647.038 336.318 645.673 334.998L644.917 334.978L361.741 379.169ZM345.426 550.015C362.076 548.687 377.026 563.282 374.21 580.013C370.627 601.315 355.727 623.578 338.755 636.755C317.525 653.312 290.581 660.75 263.863 657.419C237.14 653.791 212.972 639.637 196.733 618.107C189.558 608.501 182.103 593.811 179.915 581.888C178.657 575.028 180.539 567.26 184.739 561.612C189.105 555.766 195.631 551.919 202.857 550.926C213.702 549.458 224.712 555.036 229.906 564.721C232.286 569.157 233.649 575.077 236.016 579.525C239.227 585.598 243.749 590.885 249.255 594.995C259.08 602.412 271.479 605.554 283.65 603.715C299.147 601.521 312.421 591.498 318.77 577.196C321.281 571.515 322.742 564.947 326.606 560.062C331.823 553.461 337.371 551.049 345.426 550.015ZM804.546 228.778C810.546 226.221 816.352 227.212 822.062 229.906C826.548 232.458 829.819 235.905 831.803 240.694C834 245.943 833.995 251.856 831.787 257.099C829.204 263.211 825.259 266.375 819.331 269.146C798.731 278.782 778.098 288.394 757.389 297.788C750.577 300.875 744.929 300.422 738.249 297.615C733.222 294.738 729.816 291.332 727.754 285.786C725.789 280.485 726.003 274.62 728.349 269.475C731.145 263.431 735.787 260.244 741.733 257.539C762.676 248.018 783.394 237.797 804.546 228.778ZM707.37 138.814C713.815 136.179 719.024 136.543 725.421 139.076C730.093 141.837 733.444 144.695 735.725 149.768C736.772 152.097 737.94 156.68 737.514 159.129C734.981 171.144 730.43 182.602 725.866 194.264C718.544 212.974 712.706 233.761 703.524 251.603C702.271 254.038 697.759 256.944 695.233 258.014C689.333 260.513 683.573 260.098 677.693 257.788C666.366 251.67 662.731 241.464 667.115 229.356C676.113 204.505 685.352 179.738 694.409 154.908C696.867 148.17 700.346 141.591 707.37 138.814ZM573.679 148.222C579.944 146.181 585.297 147.092 591.025 150.008C593.739 151.751 596.793 154.086 598.349 157.041C605.841 171.277 612.134 186.255 618.994 200.822C622.859 209.662 627.868 218.541 630.71 227.734C633.78 237.668 627.081 249.056 617.71 252.69C611.558 255.076 605.747 254.208 599.948 251.762C590.996 246.159 589.583 240.279 585.332 230.967L576.737 212.345L566.315 189.847C561.636 179.734 555.488 170.247 561.005 159.194C563.565 153.967 568.14 150.006 573.679 148.222Z" fill="white"/>
</svg>